# This file uses centimeters as units for non-parametric coordinates.

mtllib Container_V5_Low.mtl
g default
v 2.151373 1.411659 3.256265
v 2.441373 -0.626895 -3.456265
v 2.362623 -2.205579 -1.472570
v 2.441373 1.411658 -1.472568
v 2.362623 -2.205579 1.493179
v 2.362623 -0.731583 3.456265
v 2.441373 -0.731583 -3.456265
v 2.151373 1.411659 -1.472568
v 2.151373 -0.499481 -3.331902
v 2.151373 -0.800784 3.256265
v 2.151373 -2.093377 -1.472568
v 2.151373 -0.746434 -3.331902
v 2.151373 -2.125174 1.493178
v 2.362623 1.268090 3.456265
v 2.362623 1.268089 1.493176
v 2.362623 1.268089 -1.411827
v 2.362623 -0.786939 -3.381767
v 2.441373 1.268090 3.546264
v 2.441373 1.411659 3.546264
v 2.441373 1.268089 -1.411827
v 2.441373 -0.786939 -3.381767
v 2.435430 1.411659 1.493176
v 2.441373 1.268089 1.493176
v 2.362623 -0.400430 1.493175
v 2.362623 -0.424235 -1.447487
v 2.441373 1.268089 1.333058
v 2.362623 1.268089 1.333058
v 2.362623 1.015070 1.332699
v 2.362623 -0.401742 1.331092
v 2.441373 1.268089 -1.237817
v 2.362623 1.268089 -1.237817
v 2.362623 1.011227 -1.243934
v 2.362623 -0.422809 -1.271342
v -2.151373 1.411659 3.256265
v -2.151373 -0.800784 3.256265
v -2.151373 -2.125174 1.493178
v -2.151373 -2.093377 -1.472568
v -2.151373 -0.746434 -3.331902
v -2.151373 -0.499481 -3.331902
v -2.441373 -0.626895 -3.456265
v -2.441373 -0.731583 -3.456265
v -2.362623 -0.786939 -3.381767
v -2.362623 -2.205579 -1.472570
v -2.362623 -2.205579 1.493179
v -2.362623 -0.731583 3.456265
v -2.362623 1.268090 3.456265
v -2.441373 1.268090 3.546264
v -2.441373 1.411659 3.546264
v 2.362623 -0.424235 -2.340362
v 2.362623 1.235331 -1.238597
v 2.362623 1.235821 1.333012
v 2.441373 1.011227 -1.243934
v 2.441373 -0.422809 -1.271342
v 2.441373 -0.424235 -1.447487
v 2.441373 1.235331 -1.238597
v 2.441373 1.235821 1.333012
v 2.441373 1.015070 1.332700
v 2.441373 -0.401742 1.331092
v 2.441373 -0.400430 1.493175
v 2.362623 -0.424235 2.656923
v 2.362623 -0.487768 2.824945
v 2.362623 -0.487768 1.493175
v 2.362623 -0.487768 -1.448477
v 2.362623 -0.487768 -2.555532
v 2.441373 -0.487768 -1.448477
v 2.441373 -0.487768 -2.555532
v 2.441373 -0.424235 -2.340362
v 2.441373 -0.487768 2.824945
v 2.441373 -0.487768 1.493175
v 2.441373 -0.424235 2.656923
v -2.441373 1.411658 -1.472568
v -2.151373 1.411659 -1.472568
v -2.362623 1.268089 1.493176
v -2.362623 1.268089 -1.411827
v -2.441373 1.268089 -1.411827
v -2.441373 -0.786939 -3.381767
v -2.441373 1.411659 1.493176
v -2.441373 1.268089 1.493176
v -2.362623 -0.400430 1.493175
v -2.362623 -0.424235 -1.447487
v -2.441373 1.268089 1.333058
v -2.362623 1.268089 1.333058
v -2.362623 1.015070 1.332699
v -2.362623 -0.401742 1.331092
v -2.441373 1.268089 -1.237817
v -2.362623 1.268089 -1.237817
v -2.362623 1.011227 -1.243934
v -2.362623 -0.422809 -1.271342
v -2.362623 -0.424235 -2.343363
v -2.362623 1.235331 -1.238597
v -2.362623 1.235821 1.333012
v -2.441373 1.011227 -1.243934
v -2.441373 -0.422809 -1.271342
v -2.441373 -0.424235 -1.447487
v -2.441373 1.235331 -1.238597
v -2.441373 1.235821 1.333012
v -2.441373 1.015070 1.332700
v -2.441373 -0.401742 1.331092
v -2.441373 -0.400430 1.493175
v -2.362623 -0.424235 2.656923
v -2.362623 -0.487768 2.824945
v -2.362623 -0.487768 1.493175
v -2.362623 -0.487768 -1.448477
v -2.362623 -0.487768 -2.555532
v -2.441373 -0.487768 -1.448477
v -2.441373 -0.487768 -2.555532
v -2.441373 -0.424235 -2.340362
v -2.441373 -0.487768 2.824945
v -2.441373 -0.487768 1.493175
v -2.441373 -0.424235 2.656923
vt 0.822324 0.251764
vt 0.894341 0.380303
vt 0.495317 0.011557
vt 0.480292 0.513243
vt 0.001807 0.015081
vt 0.001807 0.134016
vt 0.001807 0.516497
vt 0.001807 0.287658
vt 0.001807 0.401887
vt 0.355991 0.569706
vt 0.352700 0.569655
vt 0.748427 0.100356
vt 0.672223 0.697911
vt 0.111688 0.861406
vt 0.899540 0.381845
vt 0.903387 0.378961
vt 0.757281 0.364018
vt 0.717775 0.457723
vt 0.443667 0.722034
vt 0.903396 0.004643
vt 0.866009 0.104482
vt 0.457602 0.512449
vt 0.668143 0.697911
vt 0.111681 0.713939
vt 0.668144 0.651658
vt 0.352713 0.791029
vt 0.681084 0.626517
vt 0.835265 0.106410
vt 0.861847 0.092066
vt 0.830349 0.250862
vt 0.430352 0.580246
vt 0.010632 0.748322
vt 0.441961 0.580522
vt 0.464358 0.650391
vt 0.105804 0.913645
vt 0.357165 0.713643
vt 0.870786 0.114550
vt 0.469919 0.649660
vt 0.470017 0.516167
vt 0.474220 0.516164
vt 0.014288 0.751226
vt 0.102332 0.752946
vt 0.102155 0.910731
vt 0.014966 0.910195
vt 0.224699 0.401887
vt 0.346524 0.854016
vt 0.163074 0.763154
vt 0.164328 0.609517
vt 0.224699 0.015081
vt 0.718209 0.011520
vt 0.809276 0.003535
vt 0.700149 0.669046
vt 0.874497 0.671419
vt 0.904912 0.790821
vt 0.823903 0.669194
vt 0.846557 0.932939
vt 0.883586 0.527628
vt 0.852733 0.404260
vt 0.423091 0.866386
vt 0.388189 0.963917
vt 0.818328 0.379221
vt 0.733297 0.409629
vt 0.443658 0.580562
vt 0.468304 0.649106
vt 0.468361 0.516669
vt 0.465541 0.651833
vt 0.831185 0.106410
vt 0.677005 0.626517
vt 0.828390 0.429489
vt 0.677005 0.474134
vt 0.677004 0.416787
vt 0.615800 0.855946
vt 0.737259 0.132085
vt 0.718231 0.149645
vt 0.443612 0.775834
vt 0.443613 0.729581
vt 0.689945 0.694482
vt 0.689945 0.637134
vt 0.818321 0.004877
vt 0.788082 0.277258
vt 0.125858 0.873753
vt 0.780951 0.279373
vt 0.439533 0.729425
vt 0.439533 0.775834
vt 0.826403 0.222591
vt 0.689945 0.415761
vt 0.844125 0.162955
vt 0.844125 0.102658
vt 0.689945 0.484749
vt 0.092768 0.741144
vt 0.618506 0.897145
vt 0.713845 0.895619
vt 0.460798 0.792200
vt 0.460798 0.658984
vt 0.713858 0.731833
vt 0.619726 0.732101
vt 0.726635 0.865640
vt 0.747848 0.141628
vt 0.730705 0.732459
vt 0.464877 0.657313
vt 0.622159 0.894256
vt 0.623176 0.735244
vt 0.710203 0.734723
vt 0.710380 0.892491
vt 0.460798 0.793897
vt 0.464878 0.792200
vt 0.464877 0.658984
vt 0.092777 0.598953
vt 0.840046 0.102658
vt 0.388044 0.867259
vt 0.685865 0.484749
vt 0.685865 0.637134
vt 0.741340 0.113642
vt 0.378740 0.867425
vt 0.233855 0.513021
vt 0.224699 0.002288
vt 0.224699 0.134016
vt 0.224699 0.287658
vt 0.231915 0.854310
vt 0.224699 0.516497
vt 0.001807 0.002288
vt 0.480603 0.758208
vt 0.663703 0.666643
vt 0.661861 0.513013
vt 0.591964 0.416784
vt 0.595213 0.758062
vt 0.718272 0.394609
vt 0.345896 0.609052
vt 0.246648 0.512988
vt 0.495380 0.394646
vt 0.495339 0.149681
vt 0.579171 0.416800
vt 0.733280 0.303274
vt 0.733254 0.149642
vt 0.457602 0.765387
vt 0.733230 0.002294
vt 0.480360 0.409671
vt 0.480292 0.002336
vt 0.480650 0.303316
vt 0.480317 0.149684
vt 0.228645 0.406304
vt 0.473424 0.406304
vt 0.228645 0.279136
vt 0.228645 0.125503
vt 0.473424 0.125503
vt 0.473424 0.279136
vt 0.369943 0.865675
vt 0.852986 0.024977
vt 0.852998 0.131331
vt 0.365864 0.870337
vt 0.117005 0.865656
vt 0.873145 0.106599
vt 0.474122 0.649664
vt 0.832912 0.242220
vt 0.672223 0.563972
vt 0.672224 0.416506
vt 0.704957 0.420189
vt 0.745284 0.132986
vt 0.822324 0.075124
vt 0.785723 0.269306
vt 0.726626 0.732459
vt 0.814475 0.001993
vt 0.694726 0.669046
vt 0.861847 0.107010
vt 0.685865 0.415761
vt 0.212292 0.873752
vt 0.843904 0.705125
vt 0.741338 0.102170
vt 0.822121 0.758175
vt 0.764239 0.899139
vt 0.840046 0.016225
vt 0.464878 0.793897
vt 0.732402 0.732419
vt 0.732386 0.865637
vt 0.730714 0.865640
vt 0.545715 0.762847
vt 0.544860 0.897661
vt 0.471466 0.897873
vt 0.471431 0.764397
vt 0.421486 0.901548
vt 0.848907 0.029640
vt 0.509166 0.902435
vt 0.228645 0.002288
vt 0.848918 0.131331
vt 0.844125 0.016225
vt 0.439532 0.863520
vt 0.822324 0.222591
vt 0.460798 0.657313
vt 0.091106 0.598955
vt 0.092768 0.732130
vt 0.091071 0.732170
vt 0.005176 0.733861
vt 0.006276 0.599049
vt 0.001820 0.590652
vt 0.001810 0.743037
vt 0.079462 0.732446
vt 0.079670 0.598970
vt 0.092778 0.590658
vt 0.006344 0.590653
vt 0.443611 0.863520
vt 0.005101 0.742986
vt 0.857768 0.107010
vt 0.001824 0.521663
vt 0.005098 0.789239
vt 0.737260 0.113642
vt 0.742391 0.633475
vt 0.744348 0.100356
vt 0.801589 0.493059
vt 0.857768 0.082760
vt 0.137628 0.810509
vt 0.831185 0.046112
vt 0.171016 0.778500
vt 0.434068 0.730748
vt 0.359785 0.729197
vt 0.360639 0.864011
vt 0.434033 0.864223
vt 0.831185 0.192843
vt 0.614574 0.916231
vt 0.116997 0.972012
vt 0.356065 0.578831
vt 0.011516 0.913323
vt 0.352709 0.722040
vt 0.681084 0.474134
vt 0.356004 0.782325
vt 0.681085 0.695505
vt 0.357233 0.722040
vt 0.748427 0.088734
vt 0.672223 0.651658
vt 0.352696 0.512307
vt 0.105796 0.749833
vt 0.430559 0.713722
vt 0.835265 0.192843
vt 0.443657 0.571548
vt 0.228645 0.509892
vt 0.473424 0.509892
vt 0.473424 0.002288
vt 0.704957 0.664966
vt 0.443666 0.713740
vt 0.441995 0.713737
vt 0.465579 0.513777
vt 0.464342 0.515385
vt 0.121076 0.972012
vt 0.121084 0.870319
vt 0.668144 0.563972
vt 0.668145 0.416506
vt 0.826403 0.075124
vt 0.704957 0.669046
vt 0.704957 0.416109
vt 0.700149 0.416109
vt 0.694726 0.416109
vt 0.450165 0.765387
vt 0.811198 0.381336
vt 0.450165 0.512449
vt 0.896267 0.002528
vt 0.738035 0.962957
vt 0.861847 0.097704
vt 0.840046 0.162955
vt 0.005115 0.530368
vt 0.857768 0.097704
vt 0.836684 0.714042
vt 0.420039 0.947934
vt 0.737259 0.102021
vt 0.685865 0.694482
vt 0.001806 0.800385
vt 0.737296 0.998007
vt 0.737259 0.725382
vt 0.528141 0.916240
vt 0.857768 0.092066
vt 0.821976 0.436230
vt 0.835264 0.046112
vt 0.861847 0.082760
vt 0.677005 0.695505
vt 0.355988 0.523453
vt 0.681084 0.416787
vt 0.744348 0.088734
vt 0.131860 0.820599
vt 0.720112 0.686318
vt 0.717765 0.731778
vt 0.292443 0.929654
vt 0.213525 0.934037
vn -0.000219 0.945129 -0.326696
vn -0.000304 0.697777 -0.716315
vn -0.000216 0.697982 -0.716115
vn -0.000219 0.945255 -0.326332
vn -1.000000 0.000000 0.000000
vn -1.000000 0.000000 0.000000
vn -1.000000 0.000000 0.000000
vn -1.000000 0.000000 0.000000
vn -1.000000 0.000000 0.000000
vn -1.000000 0.000000 0.000000
vn -1.000000 0.000000 0.000000
vn 1.000000 -0.000001 -0.000000
vn 1.000000 -0.000000 -0.000000
vn 1.000000 -0.000004 -0.000000
vn 1.000000 -0.000004 -0.000000
vn 0.000000 -0.802671 -0.596421
vn 0.000000 -0.282773 -0.959187
vn 0.000000 -0.802670 -0.596423
vn -0.000000 -1.000000 -0.000001
vn -0.000000 -1.000000 0.000000
vn -0.000000 -1.000000 0.000000
vn -0.000000 -1.000000 -0.000001
vn 0.000000 1.000000 -0.000000
vn 0.000000 1.000000 -0.000000
vn 0.000000 1.000000 -0.000000
vn 1.000000 -0.000000 0.000000
vn 1.000000 -0.000000 0.000000
vn 1.000000 0.000000 0.000000
vn 1.000000 0.000003 -0.000000
vn 1.000000 0.000002 -0.000000
vn 1.000000 0.000001 -0.000000
vn 1.000000 0.000003 -0.000000
vn 1.000000 0.000000 0.000000
vn 1.000000 -0.000000 0.000000
vn 1.000000 0.000001 0.000000
vn 1.000000 0.000000 0.000000
vn 1.000000 0.000000 0.000000
vn 1.000000 0.000000 0.000000
vn 1.000000 0.000000 0.000000
vn 1.000000 0.000001 0.000000
vn 0.000000 -1.000000 -0.000000
vn 0.381488 -0.924301 -0.011601
vn 0.384117 -0.923210 0.011760
vn 0.000000 -1.000000 -0.000000
vn 1.000000 0.000000 0.000000
vn 1.000000 0.000000 0.000000
vn 1.000000 0.000000 0.000000
vn 1.000000 0.000000 0.000000
vn 0.000000 0.446134 -0.894966
vn 0.000000 0.000000 -1.000000
vn 0.000000 0.000000 -1.000000
vn 0.000000 0.446134 -0.894966
vn 0.000000 0.964613 -0.263670
vn 0.000000 0.964613 -0.263670
vn 0.000000 0.961516 0.274748
vn 0.000000 0.961516 0.274748
vn 0.000000 0.759220 0.650834
vn 0.000000 0.759220 0.650834
vn 0.000000 0.000000 1.000000
vn 0.000000 0.000000 1.000000
vn 0.000304 0.697777 -0.716315
vn 0.000216 0.697982 -0.716115
vn 0.000000 -0.282773 -0.959187
vn 0.000000 0.000000 -1.000000
vn 0.000000 0.000000 -1.000000
vn 0.000000 -0.802671 -0.596421
vn 0.000000 -0.960170 -0.279416
vn 0.000000 -0.802667 -0.596427
vn 0.000000 -0.802667 -0.596427
vn 0.000000 -0.960170 -0.279416
vn 0.000000 -0.958075 0.286518
vn 0.000000 -0.958075 0.286518
vn 0.000000 -0.492002 0.870594
vn 0.000000 -0.492002 0.870594
vn 0.000000 0.000000 1.000000
vn 0.000000 0.000000 1.000000
vn 0.000000 -1.000000 -0.000001
vn 0.000000 -1.000000 -0.000001
vn -0.000000 1.000000 -0.000000
vn 0.000000 1.000000 -0.000000
vn 1.000000 0.000000 0.000000
vn 0.381766 0.924184 -0.011772
vn 0.378975 0.925334 0.011614
vn 1.000000 0.000012 0.000000
vn -0.000000 -0.875411 0.483379
vn 0.000000 0.876689 0.481058
vn 0.000000 0.876689 0.481058
vn -0.000000 -0.875411 0.483379
vn 0.000000 0.481026 -0.876706
vn 0.000000 -0.982870 0.184302
vn 0.000000 -0.982870 0.184302
vn 0.000000 0.481026 -0.876707
vn 0.000000 0.875412 -0.483378
vn -0.000000 -0.876690 -0.481056
vn -0.000000 -0.876689 -0.481057
vn 0.000000 0.875412 -0.483378
vn 0.000000 -0.000000 1.000000
vn 0.000000 0.566619 0.823980
vn 0.000000 0.566619 0.823980
vn 0.000000 -0.000000 1.000000
vn 0.000000 0.999919 -0.012737
vn 0.000000 0.999921 0.012550
vn 0.000000 -0.023806 0.999717
vn 0.000000 0.001411 -0.999999
vn 1.000000 -0.000000 0.000000
vn 1.000000 -0.000000 0.000000
vn 1.000000 0.000000 0.000000
vn 1.000000 0.000000 0.000000
vn 1.000000 0.000000 0.000000
vn 1.000000 0.000000 0.000000
vn 1.000000 0.000000 0.000000
vn 1.000000 0.000000 0.000000
vn 0.000000 -1.000000 0.000000
vn 0.000000 -1.000000 0.000000
vn 0.000000 -1.000000 0.000000
vn 0.000000 -1.000000 0.000000
vn 0.000000 1.000000 0.000000
vn 0.000000 1.000000 0.000000
vn 0.000000 -1.000000 0.000000
vn 0.000000 -1.000000 0.000000
vn 0.000000 -1.000000 0.000000
vn 0.000000 -1.000000 0.000000
vn 0.000000 0.999791 0.020451
vn 0.000000 0.999791 0.020451
vn 1.000000 -0.000000 0.000000
vn 1.000000 -0.000000 0.000000
vn 1.000000 -0.000000 0.000000
vn 1.000000 0.000000 0.000000
vn 0.000000 -0.692003 0.721894
vn 0.000000 -0.692003 0.721894
vn 1.000000 0.000000 0.000000
vn 1.000000 0.000000 0.000000
vn 1.000000 0.000000 0.000000
vn 0.999939 0.011048 0.000565
vn 1.000000 0.000000 0.000000
vn 0.999785 0.020724 0.001061
vn 0.999780 0.020965 -0.000255
vn 0.999773 0.021260 0.001058
vn 0.999769 0.021469 -0.001393
vn 0.999785 0.020692 -0.001447
vn 0.999785 0.020692 -0.001447
vn 0.000000 0.000000 1.000000
vn 0.000000 0.000000 1.000000
vn 0.000000 0.000000 1.000000
vn 0.000000 0.000000 1.000000
vn 1.000000 -0.000000 0.000000
vn 1.000000 -0.000000 0.000000
vn 1.000000 0.000000 0.000000
vn 1.000000 0.000000 0.000000
vn 0.000217 0.946098 -0.323880
vn 0.000217 0.946098 -0.323880
vn 1.000000 0.000000 0.000000
vn 1.000000 0.000000 0.000000
vn 1.000000 0.000000 0.000000
vn 1.000000 0.000000 0.000000
vn 1.000000 0.000000 0.000000
vn 1.000000 0.000000 0.000000
vn 1.000000 0.000000 0.000000
vn -1.000000 -0.000000 0.000000
vn -1.000000 -0.000001 0.000000
vn -1.000000 -0.000001 0.000000
vn -1.000000 0.000000 0.000000
vn 0.000000 -0.802670 -0.596423
vn 0.000000 -1.000000 0.000000
vn 0.000000 -1.000000 0.000000
vn 0.000000 -1.000000 0.000000
vn 0.000000 -1.000000 0.000000
vn -0.000000 1.000000 -0.000000
vn -1.000000 -0.000000 0.000000
vn -1.000000 -0.000000 0.000000
vn -1.000000 -0.000000 0.000000
vn -1.000000 0.000000 0.000000
vn -1.000000 0.000000 0.000000
vn -1.000000 -0.000000 0.000000
vn -1.000000 0.000000 0.000000
vn -1.000000 0.000000 0.000000
vn -1.000000 0.000000 0.000000
vn -1.000000 -0.000000 0.000000
vn -1.000000 0.000000 0.000000
vn -1.000000 0.000000 0.000000
vn -1.000000 -0.000000 0.000000
vn -1.000000 -0.000000 0.000000
vn -1.000000 0.000000 0.000000
vn 0.000000 -1.000000 0.000000
vn 0.000000 -1.000000 0.000000
vn -0.384243 -0.923232 0.000000
vn -0.381508 -0.924366 0.000000
vn -1.000000 0.000000 0.000000
vn -1.000000 0.000000 0.000000
vn -1.000000 0.000000 0.000000
vn -1.000000 0.000000 0.000000
vn -1.000000 0.000009 0.000002
vn -1.000000 -0.000005 0.000000
vn -1.000000 -0.000005 0.000000
vn -1.000000 0.000000 0.000000
vn 0.000000 -0.875412 0.483378
vn 0.000000 -0.875412 0.483378
vn 0.000000 0.876689 0.481057
vn 0.000000 0.876689 0.481057
vn 0.000000 0.481624 -0.876378
vn 0.000000 0.481624 -0.876378
vn 0.000000 0.021067 -0.999778
vn 0.000000 0.021067 -0.999778
vn 0.000000 0.875412 -0.483378
vn 0.000000 0.875412 -0.483378
vn 0.000000 -0.876689 -0.481057
vn 0.000000 -0.876689 -0.481057
vn 0.000000 -0.000000 1.000000
vn 0.000000 -0.000000 1.000000
vn 0.000000 0.566619 0.823980
vn 0.000000 0.566619 0.823980
vn 0.000000 0.999921 0.012550
vn 0.000000 0.999921 0.012550
vn 0.000000 0.999919 -0.012737
vn 0.000000 0.999919 -0.012737
vn 0.000000 -0.023806 0.999717
vn 0.000000 -0.023806 0.999717
vn 0.000000 0.001411 -0.999999
vn 0.000000 0.001411 -0.999999
vn -1.000000 0.000000 0.000000
vn -1.000000 0.000000 0.000000
vn -1.000000 0.000000 0.000000
vn -1.000000 0.000000 0.000000
vn -1.000000 0.000000 0.000000
vn -1.000000 0.000000 0.000000
vn -1.000000 0.000000 0.000000
vn -1.000000 0.000000 0.000000
vn 0.000000 -1.000000 0.000000
vn 0.000000 -1.000000 0.000000
vn 0.000000 -1.000000 0.000000
vn 0.000000 -1.000000 0.000000
vn 0.000000 1.000000 0.000000
vn 0.000000 1.000000 0.000000
vn 0.000000 -1.000000 0.000000
vn 0.000000 -1.000000 0.000000
vn 0.000000 -1.000000 0.000000
vn 0.000000 -1.000000 0.000000
vn 0.000000 0.999791 0.020451
vn 0.000000 0.999791 0.020451
vn -1.000000 0.000000 0.000000
vn -1.000000 0.000000 0.000000
vn -1.000000 0.000000 0.000000
vn -1.000000 0.000000 0.000000
vn -1.000000 0.000000 0.000000
vn -1.000000 0.000000 0.000000
vn 0.000000 -0.692003 0.721894
vn 0.000000 -0.692003 0.721894
vn 0.000000 -0.692003 0.721894
vn 0.000000 -0.692003 0.721894
vn -1.000000 0.000000 0.000000
vn -1.000000 0.000000 0.000000
vn -1.000000 0.000000 0.000000
vn -1.000000 -0.000001 -0.000000
vn -1.000000 0.000000 0.000000
vn -1.000000 -0.000001 -0.000000
vn -1.000000 -0.000001 -0.000000
vn -1.000000 -0.000001 -0.000000
vn -1.000000 0.000000 0.000000
vn -1.000000 0.000000 0.000000
vn -1.000000 0.000000 0.000000
vn -1.000000 0.000000 0.000000
vn -1.000000 0.000000 0.000000
vn -1.000000 0.000000 0.000000
vn -1.000000 0.000000 0.000000
vn -0.005430 0.958510 -0.285007
vn -0.005430 0.958510 -0.285007
vn -0.005430 0.958510 -0.285007
vn -0.005430 0.958510 -0.285007
vn 0.000000 0.935365 0.353684
vn 0.000000 0.935365 0.353684
vn 0.000000 0.935365 0.353684
vn 0.000000 0.935365 0.353684
vn 0.000000 0.935365 0.353684
vn 0.000000 0.935365 0.353684
vn 0.000000 0.935365 0.353684
vn 0.000000 0.935365 0.353684
vn 0.000000 0.959066 -0.283184
vn 0.000000 0.959066 -0.283184
vn 0.000000 0.959066 -0.283184
vn 0.000000 0.959066 -0.283184
s 1
g cointainer_Low10
usemtl initialShadingGroup
f 4/140/1 2/138/2 9/3/3 8/131/4
s 2
f 8/4/5 9/132/6 12/125/7 11/124/8
f 1/122/9 13/123/10 10/126/11
s 3
f 54/10/12 65/11/13 66/229/14 67/273/15
s 4
f 17/157/16 7/249/17 21/248/18
s 5
f 14/243/19 15/242/20 23/219/21 18/151/22
s 1
f 22/139/23 1/130/24 19/137/25
s 6
f 49/210/26 16/24/27 25/212/28
s 3
f 68/26/29 69/222/30 59/226/31 70/224/32
f 20/233/33 52/31/34 53/220/35 54/10/12
f 53/220/35 65/11/13 54/10/12
f 20/233/33 55/33/36 52/31/34
f 56/239/37 23/19/38 57/231/39
f 58/36/40 57/231/39 23/19/38 59/226/31
f 69/222/30 58/36/40 59/226/31
s 2
f 13/123/10 1/122/9 8/4/5 11/124/8
s 1
f 4/140/1 8/131/4 1/130/24 22/139/23
s 10
f 26/153/41 27/38/42 31/39/43 30/40/44
s 3
f 55/33/36 56/239/37 57/231/39 52/31/34
s off
f 33/214/45 32/213/46 28/216/47 29/215/48
s 3
f 58/36/40 69/222/30 65/11/13 53/220/35
s 11
f 35/45/49 34/120/50 1/7/51 10/9/52
f 13/8/53 36/118/54 35/45/49 10/9/52
f 37/117/55 36/118/54 13/8/53 11/6/56
f 12/5/57 38/49/58 37/117/55 11/6/56
f 9/121/59 39/116/60 38/49/58 12/5/57
s 1
f 2/138/2 40/136/61 39/50/62 9/3/3
s 4
f 41/52/63 40/163/64 2/250/65 7/249/17
f 17/157/16 42/237/66 41/52/63 7/249/17
s 12
f 43/144/67 42/183/68 17/236/69 3/145/70
f 44/143/71 43/144/67 3/145/70 5/146/72
f 6/142/73 45/141/74 44/143/71 5/146/72
f 46/234/75 45/141/74 6/142/73 14/235/76
s 5
f 47/147/77 46/150/78 14/243/19 18/151/22
s 1
f 1/130/24 34/127/79 48/62/80 19/137/25
s 3
f 30/63/81 55/33/36 20/233/33
s 10
f 27/38/42 51/64/82 50/65/83 31/39/43
s 3
f 23/19/38 56/239/37 26/238/84
s 13
f 32/42/85 33/41/86 53/32/87 52/230/88
s 14
f 25/25/89 16/244/90 20/155/91 54/228/92
s 13
f 29/44/93 28/43/94 57/35/95 58/221/96
s 15
f 15/217/97 24/67/98 59/28/99 23/232/100
s 10
f 50/65/83 51/64/82 56/34/101 55/241/102
s 13
f 28/43/94 32/42/85 52/230/88 57/35/95
s 10
f 31/39/43 50/65/83 55/241/102 30/240/103
f 51/64/82 27/38/42 26/66/104 56/34/101
s 16
f 5/57/105 62/208/106 61/69/107 6/58/108
f 63/206/109 62/208/106 5/57/105 3/55/110
f 64/277/111 63/206/109 3/55/110 17/278/112
s 17
f 63/70/113 64/71/114 66/274/115 65/223/116
s 14
f 49/23/117 25/25/89 54/228/92 67/13/118
s 17
f 61/272/119 62/68/120 69/27/121 68/225/122
s 15
f 24/67/98 60/211/123 70/270/124 59/28/99
s 17
f 62/68/120 63/70/113 65/223/116 69/27/121
s 13
f 33/41/86 29/44/93 58/221/96 53/32/87
s off
f 15/267/125 60/72/126 24/218/127
s 16
f 6/58/108 61/69/107 14/17/128
s 14
f 16/244/90 17/245/129 21/156/130 20/155/91
s 18
f 2/2/131 21/16/132 7/15/133
f 4/1/134 20/30/135 21/16/132 2/2/131
f 4/1/134 30/154/136 20/30/135
f 22/21/137 26/37/138 30/154/136 4/1/134
f 22/21/137 23/152/139 26/37/138
f 18/20/140 23/152/139 22/21/137 19/254/141
s off
f 48/135/142 47/251/143 18/253/144 19/22/145
s 6
f 17/14/146 16/24/27 49/210/26 64/276/147
s 16
f 14/17/128 61/69/107 60/269/148 15/18/149
s 1
f 71/134/150 72/74/151 39/50/62 40/136/61
s 19
f 72/128/152 37/48/153 38/115/154 39/129/155
f 34/46/156 35/119/157 36/47/158
s 20
f 94/201/159 107/204/160 106/264/161 105/195/162
s 4
f 42/237/66 76/247/163 41/52/63
s off
f 46/181/164 47/148/165 78/149/166 73/184/167
s 1
f 77/133/168 48/62/80 34/127/79
s off
f 89/261/169 80/180/170 74/182/171
s 20
f 108/203/172 110/258/173 99/199/174 109/194/175
f 75/90/176 94/201/159 93/192/177 92/196/178
f 93/192/177 94/201/159 105/195/162
f 75/90/176 92/196/178 95/191/179
f 96/189/180 97/197/181 78/198/182
f 98/193/183 99/199/174 78/198/182 97/197/181
f 109/194/175 99/199/174 98/193/183
s 19
f 36/47/158 37/48/153 72/128/152 34/46/156
s 1
f 71/134/150 77/133/168 34/127/79 72/74/151
s 22
f 81/97/184 85/161/185 86/99/186 82/175/187
s 20
f 95/191/179 92/196/178 97/197/181 96/189/180
s off
f 88/176/188 84/177/189 83/178/190 87/179/191
s 20
f 98/193/183 93/192/177 105/195/162 109/194/175
f 85/190/192 75/90/176 95/191/179
s 22
f 82/175/187 86/99/186 90/173/193 91/174/194
s 20
f 78/198/182 81/108/195 96/189/180
s 23
f 87/104/196 92/92/197 93/91/198 88/101/199
s 24
f 80/84/200 94/75/201 75/200/202 74/186/203
s 23
f 84/102/204 98/96/205 97/95/206 83/103/207
s 25
f 73/171/208 78/185/209 99/88/210 79/109/211
s 26
f 90/106/212 95/93/213 96/94/214 91/107/215
s 23
f 83/103/207 97/95/206 92/92/197 87/104/196
s 26
f 86/172/216 85/105/217 95/93/213 90/106/212
f 91/107/215 96/94/214 81/188/218 82/100/219
s 27
f 44/56/220 45/265/221 101/255/222 102/170/223
f 103/169/224 43/54/225 44/56/220 102/170/223
f 104/167/226 42/53/227 43/54/225 103/169/224
s 28
f 103/112/228 105/78/229 106/77/230 104/263/231
s 24
f 89/83/232 107/76/233 94/75/201 80/84/200
s 28
f 101/165/234 108/86/235 109/89/236 102/111/237
s 25
f 79/109/211 99/88/210 110/87/238 100/257/239
s 28
f 102/111/237 109/89/236 105/78/229 103/112/228
s 23
f 88/101/199 93/91/198 98/96/205 84/102/204
s off
f 73/81/240 79/166/241 100/280/242
s 29
f 45/59/243 46/60/244 101/110/245
s off
f 74/85/246 75/187/247 76/159/248 42/246/249
s 30
f 40/51/250 41/162/251 76/79/252
f 71/73/253 40/51/250 76/79/252 75/158/254
f 71/73/253 75/158/254 85/98/255
f 77/82/256 71/73/253 85/98/255 81/160/257
f 77/82/256 81/160/257 78/80/258
f 47/61/259 48/252/260 77/82/256 78/80/258
s 27
f 42/53/227 104/167/226 89/260/261 74/266/262
s 29
f 46/60/244 73/279/263 100/114/264 101/110/245
s off
f 107/262/265 89/168/266 104/113/267 106/205/268
f 108/259/269 101/256/270 100/164/271 110/202/272
f 61/209/273 68/271/274 70/29/275 60/268/276
f 49/275/277 67/227/278 66/12/279 64/207/280
