# This file uses centimeters as units for non-parametric coordinates.

mtllib Zaun_Hanger_V1_Low.mtl
g default
v 0.000000 -0.100000 -3.290061
v -0.000000 0.100000 -3.290061
v 0.000000 -0.100000 -3.820461
v -0.000000 0.100000 -3.820461
vt 0.000751 0.002011
vt 0.376316 0.001992
vt 0.376366 0.997989
vt 0.000802 0.998008
vn -1.000000 -0.000000 0.000000
vn -1.000000 -0.000000 0.000000
vn -1.000000 -0.000000 0.000000
vn -1.000000 -0.000000 0.000000
s off
g pPlane2
usemtl initialShadingGroup
f 1/1/1 2/2/2 4/3/3 3/4/4
g default
v 0.000000 -0.100000 -3.290061
v -0.000000 0.100000 -3.290061
v 0.000000 -0.100000 -3.820461
v -0.000000 0.100000 -3.820461
vt 0.000751 0.002011
vt 0.376316 0.001992
vt 0.376366 0.997989
vt 0.000802 0.998008
vn -1.000000 -0.000000 0.000000
vn -1.000000 -0.000000 0.000000
vn -1.000000 -0.000000 0.000000
vn -1.000000 -0.000000 0.000000
s off
g pPlane2
f 5/5/5 6/6/6 8/7/7 7/8/8
